<svg xmlns="http://www.w3.org/2000/svg" width="18" height="15" viewBox="0 0 18 15">
  <g id="ÍCONE_SETA_DIREITA" data-name="ÍCONE SETA DIREITA" transform="translate(0 -41.346)">
    <path id="ÍCONE_SETA_DIREITA-2" data-name="ÍCONE SETA DIREITA" d="M17.712,48.145l-6.5-6.512a.987.987,0,0,0-1.393,0l-.59.591a.98.98,0,0,0-.288.7,1,1,0,0,0,.288.706l3.792,3.807H.972a.962.962,0,0,0-.972.97v.836a1,1,0,0,0,.972,1.013H13.064L9.229,54.084a.978.978,0,0,0,0,1.386l.59.589a.987.987,0,0,0,1.393,0l6.5-6.511a1,1,0,0,0,0-1.4Z" transform="translate(0 0)" fill="#fff"/>
  </g>
</svg>
