<svg id="ÍCONE_SETA_ESQUERDA" data-name="ÍCONE SETA ESQUERDA" xmlns="http://www.w3.org/2000/svg" width="18" height="15" viewBox="0 0 18 15">
  <path id="ÍCONE_SETA_ESQUERDA-2" data-name="ÍCONE SETA ESQUERDA" d="M.288,48.145l6.5-6.512a.987.987,0,0,1,1.393,0l.59.591a.98.98,0,0,1,.288.7,1,1,0,0,1-.288.706L4.979,47.436H17.028a.962.962,0,0,1,.972.97v.836a1,1,0,0,1-.972,1.013H4.936l3.835,3.828a.978.978,0,0,1,0,1.386l-.59.589a.987.987,0,0,1-1.393,0l-6.5-6.511a1,1,0,0,1,0-1.4Z" transform="translate(0 -41.346)" fill="#fff"/>
</svg>
